<?xml version="1.0" standalone="no"?>
<!DOCTYPE svg PUBLIC "-//W3C//DTD SVG 20010904//EN"
 "http://www.w3.org/TR/2001/REC-SVG-20010904/DTD/svg10.dtd">
<svg version="1.0" xmlns="http://www.w3.org/2000/svg"
 width="500.000000pt" height="500.000000pt" viewBox="0 0 500.000000 500.000000"
 preserveAspectRatio="xMidYMid meet">

<g transform="translate(0.000000,500.000000) scale(0.100000,-0.100000)"
fill="#000000" stroke="none">
<path d="M2374 4380 c-72 -13 -173 -51 -241 -91 -43 -25 -236 -211 -726 -699
-368 -366 -689 -693 -713 -726 -152 -211 -170 -489 -47 -729 33 -64 96 -129
742 -776 675 -675 709 -707 781 -742 41 -21 113 -47 160 -58 176 -44 386 -8
535 92 49 34 269 247 751 731 680 682 681 683 722 768 60 123 75 199 69 345
-6 161 -45 270 -141 393 -24 31 -341 352 -703 712 -713 710 -707 705 -868 756
-90 28 -236 39 -321 24z m252 -219 c33 -10 83 -31 110 -46 33 -19 270 -248
716 -694 652 -651 668 -668 703 -743 47 -99 63 -202 46 -294 -12 -67 -51 -167
-69 -178 -6 -4 -33 7 -59 23 -91 56 -195 84 -323 88 -112 4 -153 -2 -278 -42
-23 -8 -23 -7 -15 46 24 159 -2 361 -65 517 -59 144 -166 286 -292 389 -83 68
-261 156 -370 185 -120 32 -368 31 -482 0 -277 -76 -506 -261 -633 -512 -82
-161 -120 -382 -97 -550 6 -41 9 -76 8 -78 -2 -2 -32 7 -67 19 -93 31 -262 38
-360 14 -80 -20 -167 -55 -210 -86 -15 -10 -31 -19 -37 -19 -17 0 -64 120 -75
192 -15 95 1 195 43 284 31 64 78 114 704 740 436 436 688 681 719 699 114 65
262 83 383 46z m60 -951 c141 -36 279 -121 376 -230 144 -163 205 -338 195
-555 -3 -60 -10 -127 -17 -147 l-11 -38 -40 21 c-117 59 -320 77 -457 39 -74
-21 -143 -51 -206 -90 l-36 -22 -48 28 c-73 44 -121 64 -201 85 -140 36 -335
18 -450 -41 -31 -15 -42 -17 -45 -8 -49 159 -31 377 44 537 118 252 337 405
635 445 53 7 188 -6 261 -24z m-1344 -1101 c60 -13 148 -48 148 -59 0 -14 -97
-50 -169 -62 -56 -9 -86 -9 -142 0 -71 12 -169 48 -169 62 0 11 72 41 132 55
68 17 133 18 200 4z m879 -14 c52 -18 109 -47 109 -56 0 -3 -84 -89 -187 -190
-202 -199 -256 -238 -364 -264 -118 -28 -232 -14 -338 40 -49 24 -171 129
-171 146 0 5 17 9 38 9 120 1 286 74 407 180 90 79 194 135 275 149 69 12 174
6 231 -14z m771 14 c56 -12 168 -57 168 -68 0 -4 -174 -180 -387 -392 -407
-405 -447 -438 -566 -473 -68 -20 -196 -21 -258 -2 -78 24 -144 63 -209 122
-68 64 -67 68 20 77 30 3 84 15 120 26 128 40 178 79 465 362 160 157 289 276
317 291 108 60 222 79 330 57z m814 2 c63 -12 164 -50 164 -61 0 -13 -106 -51
-178 -63 -46 -8 -80 -8 -133 1 -71 12 -169 48 -169 62 0 11 72 41 132 55 65
16 120 18 184 6z m-350 -277 c58 -25 174 -54 217 -54 20 0 37 -3 37 -8 0 -4
-210 -217 -467 -473 -321 -319 -483 -474 -517 -493 -77 -41 -151 -59 -246 -58
-135 1 -246 51 -348 155 l-43 44 61 7 c136 16 255 67 370 162 36 29 231 219
434 422 l369 370 47 -29 c25 -16 64 -36 86 -45z"/>
</g>
</svg>
